<svg version="1.2" xmlns="http://www.w3.org/2000/svg" viewBox="0 0 500 500" width="500" height="500">
	<title>Big Deal</title>
	<defs>
		<linearGradient id="g1" x2="1" gradientUnits="userSpaceOnUse" gradientTransform="matrix(0,-111.2,204.8,0,261.253,263.424)">
			<stop offset="0" stop-color="#ff0000"/>
			<stop offset="1" stop-color="#fff600"/>
		</linearGradient>
		<linearGradient id="g2" x2="1" gradientUnits="userSpaceOnUse" gradientTransform="matrix(0,-97.6,201.6,0,259.155,336.94)">
			<stop offset="0" stop-color="#ff0000"/>
			<stop offset="1" stop-color="#fff600"/>
		</linearGradient>
	</defs>
	<style>
		.s0 { fill: #1881cc } 
		.s1 { fill: url(#g1);paint-order:stroke fill markers;stroke: #ffffff;stroke-width: 4;stroke-linejoin: round; } 
		.s2 { fill: url(#g2);paint-order:stroke fill markers;stroke: #ffffff;stroke-width: 4;stroke-linejoin: round; } 
	</style>
	<g id="Group 7">
		<path id="Shape 1" class="s0" d="m285.5 70.4l-33.6 92.7-39.3-54.7-0.1 66.6-51.9-31.4 7.5 48.2-84.3-18.8 64.5 54.3-102.6 19.7 106.6 16.8-68.1 33.6 85.8 1.9-107.4 86.1 128.2-48.5-28.7 75 67.1-81 15.5 69.8 28-56 47.4 84.9 7.8-102.6 72.1 50.3-49.4-73 58.3-3-32.6-31.6 59.2-23.7-69.1-12.8 87.9-40.5-99.7 13.9 56.3-67.1-66.2 35.5 11.9-65.2-49.4 51.4z"/>
		<path id="BiG" class="s1" aria-label="BiG"  d="m207.3 218.7c9.2-6 13.9-14.5 13.9-23.8 0-15.1-12.9-24-40.4-19.6l-53.4 8.6v99.9l56.2-9.1c27.6-4.4 42.3-16.9 42.3-34.3 0-11.9-6.9-19.3-18.6-21.7zm-31.1-19.1c7.6-1.2 11 0.8 11 5.6 0 4.9-3.4 8-11 9.2l-15.7 2.6v-14.9zm4.6 52.1l-20.3 3.3v-15.7l20.3-3.3c7.4-1.2 11.1 0.9 11.1 6.1 0 5.1-3.7 8.4-11.1 9.6zm72.1-72.4c11.8-1.9 19.4-10.3 19.4-20.1 0-9.3-7.6-14.7-19.4-12.7-11.9 1.9-19.5 10.2-19.5 19.5 0 9.3 7.6 15.2 19.5 13.3zm-16.2 86.9l32.3-5.2v-78l-32.3 5.2zm113.6-45.8c-4.1 2.4-8.1 3.8-12.2 4.4-14.5 2.4-23.9-6.1-23.9-21.1 0-15.4 9.4-26.5 24.3-28.9 8.8-1.4 16.1 1.1 22.4 7.4l21.5-22.5c-10.1-10.7-25.9-15-45.6-11.9-33 5.4-56.5 30.7-56.5 61.4 0 30.7 23.5 48.4 55.8 43.2 14.7-2.4 31.3-9.5 43.5-19.7v-42.3l-29.3 4.8z"/>
		<path id="Deal" class="s2" aria-label="Deal"  d="m128.1 353.5l37.2-6c25.2-4 42.6-21.2 42.6-44.6 0-23.4-17.4-34.9-42.6-30.8l-37.2 6zm25.5-24v-35.7l10.6-1.8c10.7-1.7 18 3.5 18 15 0 11.6-7.3 19.1-18 20.8zm125.6-29.9c0-20-15-28.1-32.4-25.3-19.1 3.1-33.4 18-33.4 35.9 0 17.6 14 28.3 35.6 24.8 11.8-1.9 20.1-6.4 25.8-13.6l-12.7-10.8c-3.9 3.6-6.9 5.4-12.3 6.3-6 1-10.1-0.7-11.9-5l41-6.6c0.1-1.7 0.3-4 0.3-5.7zm-32.2-8.7c5-0.8 8.5 1.5 9.5 6.3l-19 3.1c1-5.2 4.4-8.6 9.5-9.4zm64.7-27.1c-9.2 1.5-19.6 5.6-26.5 11l7.7 14.8c3.9-3.6 9.8-6.2 15.1-7.1 6.9-1.1 10.4 0.7 11.1 5.1l-9.8 1.6c-18.3 3-27 10.7-27 22.1 0 10.2 7.5 17.2 21.9 14.8 8.3-1.3 13.9-5.1 16.7-11.5v7.8l22.7-3.7v-31.7c0-19.6-11.7-26.5-31.9-23.2zm-0.1 46.5c-3.7 0.6-5.9-1.1-5.9-3.8 0-3.2 2.3-5.3 7.5-6.2l6-0.9v4.1c-1.3 4-4.3 6.3-7.6 6.8zm42.5 6.7l24.4-3.9v-80l-24.4 3.9z"/>
	</g>
</svg>