<?xml version="1.0" encoding="UTF-8" standalone="no"?>
<svg
   xmlns:dc="http://purl.org/dc/elements/1.1/"
   xmlns:cc="http://creativecommons.org/ns#"
   xmlns:rdf="http://www.w3.org/1999/02/22-rdf-syntax-ns#"
   xmlns:svg="http://www.w3.org/2000/svg"
   xmlns="http://www.w3.org/2000/svg"
   viewBox="0 0 350.66666 50.666668"
   height="50.666668"
   width="350.66666"
   xml:space="preserve"
   id="svg2"
   version="1.1"><metadata
     id="metadata8"><rdf:RDF><cc:Work
         rdf:about=""><dc:format>image/svg+xml</dc:format><dc:type
           rdf:resource="http://purl.org/dc/dcmitype/StillImage" /></cc:Work></rdf:RDF></metadata><defs
     id="defs6" /><g
     transform="matrix(1.3333333,0,0,-1.3333333,0,50.666667)"
     id="g10"><g
       transform="scale(0.1)"
       id="g12"><path
         id="path14"
         style="fill:#4e4e55;fill-opacity:1;fill-rule:nonzero;stroke:none"
         d="m 1569.64,164.012 c -3.98,0.699 -17.33,2.918 -21.24,3.636 -21.09,3.793 -39.15,8.723 -39.15,29.942 0,18.219 19.1,26.719 42.87,26.719 35.37,0 66.39,-16.028 69.93,-17.797 l 19.39,51.148 c -7.46,3.871 -39.02,20.731 -88.72,20.731 -45.52,0 -101.12,-23.903 -101.12,-83.371 0,-53.219 38.03,-70.301 74.68,-76.75 5.06,-0.93 20.97,-3.649 25.52,-4.442 24.65,-4.168 38.19,-13.348 38.19,-29.4764 0,-20.4727 -19.23,-30.0703 -48.34,-30.0703 -46.61,0 -73.96,13.8906 -81.86,17.1406 l -21.48,-50.043 C 1444.98,17.9414 1476.8,0 1538.89,0 c 60.25,0 108.6,29.8398 108.6,85.3789 -0.47,51.6991 -35.22,71.3121 -77.85,78.6331" /><path
         id="path16"
         style="fill:#4e4e55;fill-opacity:1;fill-rule:nonzero;stroke:none"
         d="m 1753.61,371.531 -57.02,-31.543 v -66.797 h -30.02 V 218.66 h 30.02 V 100.77 c 0,-50.3598 20.7,-95.57859 93.71,-95.57859 h 22.83 V 59.7695 h -8.56 c -35.89,0 -50.96,20.711 -50.96,48.8395 V 218.66 h 65.49 v 54.531 h -65.49 v 98.34" /><path
         id="path18"
         style="fill:#4e4e55;fill-opacity:1;fill-rule:nonzero;stroke:none"
         d="m 2199.09,222.949 c 22.26,0 45.05,-10.121 51.89,-34.609 l 51.74,19.68 c -14.49,51.218 -62.07,70.371 -104.04,70.371 -75.2,0 -105.52,-46.7 -105.52,-92.09 V 92.1094 C 2093.16,46.7383 2123.48,0 2198.68,0 c 41.97,0 89.55,19.1797 104.04,70.3984 l -51.74,19.6719 c -6.84,-24.4609 -29.63,-34.6406 -51.89,-34.6406 -38.74,0 -49.01,21.2109 -49.01,45.3903 v 76.789 c 0,24.153 10.27,45.34 49.01,45.34" /><path
         id="path20"
         style="fill:#4e4e55;fill-opacity:1;fill-rule:nonzero;stroke:none"
         d="m 2442.91,152.82 106.6,120.371 h -70.12 L 2387.7,168.27 v 203.25 h -57.07 V 5.19141 h 57.07 V 90.4883 l 18.72,21.1407 81.65,-106.43759 h 68.43 L 2442.91,152.82" /><path
         id="path22"
         style="fill:#e32124;fill-opacity:1;fill-rule:nonzero;stroke:none"
         d="m 1978.61,214.711 h -59.29 c -9.43,0 -17.08,-7.66 -17.08,-17.051 v -64.34 h -58.49 v 64.34 c 0,41.731 33.81,75.531 75.57,75.531 h 59.29 v -58.48" /><path
         id="path24"
         style="fill:#e32124;fill-opacity:1;fill-rule:nonzero;stroke:none"
         d="m 1930.35,63.6797 h 59.33 c 9.39,0 17.06,7.6484 17.06,17.0703 v 64.32 h 58.48 V 80.75 c 0,-41.7305 -33.82,-75.55859 -75.54,-75.55859 h -59.33 V 63.6797" /><path
         id="path26"
         style="fill:#e32124;fill-opacity:1;fill-rule:nonzero;stroke:none"
         d="m 963.379,273.191 h 65.471 V 218.66 H 963.379 V 108.609 c 0,-28.1285 15.062,-48.8395 50.921,-48.8395 h 8.56 V 5.19141 h -22.84 c -73.032,0 -93.668,45.21879 -93.668,95.57859 V 218.66 H 810.379 V 108.609 c 0,-28.1285 15.09,-48.8395 50.949,-48.8395 h 8.531 V 5.19141 h -22.847 c -73,0 -93.684,45.21879 -93.684,95.57859 v 117.89 h -28.906 v 54.531 h 28.906 v 66.797 l 57.051,31.543 v -98.34 h 95.973 v 66.797 l 57.027,31.543 v -98.34" /><path
         id="path28"
         style="fill:#e32124;fill-opacity:1;fill-rule:nonzero;stroke:none"
         d="m 347.789,278.391 c -18.039,0 -36.34,-3.493 -52.809,-10.469 V 371.531 H 237.949 V 5.19141 H 294.98 V 214.609 c 11.461,7.2 27.95,11.5 44.071,11.5 35.847,0 52.719,-19.929 52.719,-49.32 V 5.19141 h 56.98 V 184.578 c 0,54.094 -39.18,93.813 -100.961,93.813" /><path
         id="path30"
         style="fill:#e32124;fill-opacity:1;fill-rule:nonzero;stroke:none"
         d="m 636.828,58.4883 c -10.84,-5.8477 -24.558,-9.1992 -38.207,-9.1992 -42.562,0 -58.562,21.6797 -58.562,51.5819 v 172.32 h -57.02 V 99.8203 C 483.039,32.4297 521.988,0 591.602,0 624.941,0 661.859,8.42969 693.828,22.2695 V 273.191 h -57 V 58.4883" /><path
         id="path32"
         style="fill:#e32124;fill-opacity:1;fill-rule:nonzero;stroke:none"
         d="m 131.32,164.012 c -3.949,0.699 -17.32,2.918 -21.242,3.636 -21.0467,3.793 -39.1483,8.723 -39.1483,29.942 0,18.219 19.082,26.719 42.8793,26.719 35.363,0 66.382,-16.028 69.921,-17.797 l 19.379,51.148 c -7.41,3.871 -39,20.731 -88.73,20.731 -45.4884,0 -101.0977,-23.903 -101.0977,-83.371 0,-53.219 37.9882,-70.301 74.6875,-76.75 5.0507,-0.93 20.9722,-3.649 25.5512,-4.442 24.64,-4.168 38.121,-13.348 38.121,-29.4764 0,-20.4727 -19.172,-30.0703 -48.27,-30.0703 -46.6522,0 -73.9999,13.8906 -81.9101,17.1406 L 0,21.3789 C 6.69141,17.9414 38.5,0 100.59,0 160.84,0 209.191,29.8398 209.191,85.3789 208.672,137.078 173.93,156.691 131.32,164.012" /><path
         id="path34"
         style="fill:#e32124;fill-opacity:1;fill-rule:nonzero;stroke:none"
         d="m 1207.6,159.512 h -96.15 v 19.5 c 0,21.75 10.92,45.078 48.37,45.078 36.1,0 47.78,-22.719 47.78,-44.02 z m 57.03,26.789 c 0,49.019 -37.36,92.109 -104.54,92.109 -76.26,0 -105.54,-47.621 -105.54,-92.109 V 97.2891 C 1054.55,35.7109 1093.9,0 1160.09,0 c 58.39,0 88.7,33.7617 97.7,54.0391 l -48.14,28.9218 c -4.11,-11.9101 -23.17,-28.6211 -49.18,-28.6211 -35.26,0 -48.82,19.6719 -48.82,44.3204 l -0.2,14.6798 h 153.18 v 72.961" /><path
         id="path36"
         style="fill:#e32124;fill-opacity:1;fill-rule:nonzero;stroke:none"
         d="M 1301.12,186.199 V 5.19141 h 56.98 V 181.328 c 0,15.383 8.73,41.672 50.58,41.672 6.57,0 21.42,-1.871 26.17,-2.762 v 55.282 c -5.14,1.242 -16.92,2.89 -29.09,2.89 -72.48,0 -104.64,-45.461 -104.64,-92.211" /><path
         id="path38"
         style="fill:#4e4e55;fill-opacity:1;fill-rule:nonzero;stroke:none"
         d="m 2606.97,257.98 c 0,2.122 -1.34,4.11 -4.92,4.11 h -3.58 v -9.031 h 3.58 c 3.86,0 4.92,1.73 4.92,4.519 z m -0.53,-19.14 c -0.27,0 -0.53,0.129 -0.67,0.39 l -4.26,9.309 h -3.04 v -9.168 c 0,-0.269 -0.15,-0.531 -0.4,-0.531 h -5.33 c -0.26,0 -0.53,0.262 -0.53,0.531 v 27.508 h 10.64 c 7.17,0 10.36,-4.527 10.36,-8.77 v -0.531 c 0,-3.726 -1.99,-7.18 -5.58,-8.777 l 5.32,-9.43 c 0.13,-0.269 0,-0.531 -0.27,-0.531 z m -4.39,35.09 c -12.09,0 -20.87,-9.45 -20.87,-21.539 0,-11.301 8.91,-20.871 20.87,-20.871 12.09,0 20.74,9.57 20.74,20.871 0,11.968 -9.44,21.539 -20.74,21.539 z m 0,-48.66 c -15.42,0 -27.91,11.699 -27.91,27.121 0,15.418 12.49,27.789 27.91,27.789 15.28,0 27.78,-12.5 27.78,-27.789 0,-15.422 -12.36,-27.121 -27.78,-27.121" /></g></g></svg>