<svg xmlns="http://www.w3.org/2000/svg" width="48" height="47" viewBox="0 0 48 47">
  <defs>
    <style>
      .cls-1 {
        fill: #f1592a;
        fill-rule: evenodd;
      }
    </style>
  </defs>
  <path class="cls-1" d="M23.952,22.672c12.746,0,23.078.252,23.078,0.563S36.7,23.8,23.952,23.8,0.874,23.545.874,23.234,11.206,22.672,23.952,22.672Z"/>
  <path id="Ellipse_2_copy" data-name="Ellipse 2 copy" class="cls-1" d="M23.952,0.141c0.3,0,.547,10.332.547,23.078S24.254,46.3,23.952,46.3,23.4,35.964,23.4,23.219,23.65,0.141,23.952.141Z"/>
  <path id="Ellipse_2_copy_2" data-name="Ellipse 2 copy 2" class="cls-1" d="M23.667,22.931c6.524-6.524,11.942-11.683,12.1-11.524s-5,5.577-11.524,12.1S12.3,35.19,12.143,35.031,17.144,29.455,23.667,22.931Z"/>
  <path id="Ellipse_2_copy_2-2" data-name="Ellipse 2 copy 2" class="cls-1" d="M12.143,11.407c0.159-.159,5.577,5,12.1,11.524s11.683,11.941,11.524,12.1-5.577-5-12.1-11.524S11.984,11.566,12.143,11.407Z"/>
</svg>
