<svg id="Group_2_copy_2" data-name="Group 2 copy 2" xmlns="http://www.w3.org/2000/svg" width="47" height="47" viewBox="0 0 47 47">
  <defs>
    <style>
      .cls-1 {
        fill: #1881cc;
        fill-rule: evenodd;
      }
    </style>
  </defs>
  <path class="cls-1" d="M23.417,23.105c12.553-4.568,22.819-8.024,22.93-7.72s-9.976,4.253-22.529,8.82S1,32.229.888,31.925,10.864,27.673,23.417,23.105Z"/>
  <path id="Ellipse_2_copy" data-name="Ellipse 2 copy" class="cls-1" d="M15.347,0.926c0.3-.111,4.253,9.976,8.82,22.529s8.024,22.819,7.72,22.93-4.253-9.976-8.82-22.529S15.044,1.036,15.347.926Z"/>
  <path id="Ellipse_2_copy_2" data-name="Ellipse 2 copy 2" class="cls-1" d="M23.224,23.47C27.312,14.7,30.8,7.68,31.014,7.779S28.087,15.066,24,23.831s-7.576,15.79-7.79,15.691S19.135,32.236,23.224,23.47Z"/>
  <path id="Ellipse_2_copy_2-2" data-name="Ellipse 2 copy 2" class="cls-1" d="M7.74,16.248c0.1-.214,7.286,2.927,16.052,7.016s15.791,7.576,15.691,7.79S32.2,28.126,23.43,24.038,7.64,16.462,7.74,16.248Z"/>
</svg>
