<svg xmlns="http://www.w3.org/2000/svg" width="246" height="211" viewBox="0 0 246 211">
  <defs>
    <style>
      .cls-1 {
        opacity: 0.5;
      }

      .cls-2 {
        fill: #f1592a;
      }
    </style>
  </defs>
  <g class="cls-1">
    <ellipse class="cls-2" cx="3.781" cy="4.75" rx="3.781" ry="3.781"/>
    <ellipse id="Ellipse_1_copy" data-name="Ellipse 1 copy" class="cls-2" cx="37.781" cy="4.75" rx="3.781" ry="3.781"/>
    <ellipse id="Ellipse_1_copy_2" data-name="Ellipse 1 copy 2" class="cls-2" cx="71.781" cy="4.75" rx="3.781" ry="3.781"/>
    <ellipse id="Ellipse_1_copy_3" data-name="Ellipse 1 copy 3" class="cls-2" cx="105.781" cy="4.75" rx="3.781" ry="3.781"/>
    <ellipse id="Ellipse_1_copy_4" data-name="Ellipse 1 copy 4" class="cls-2" cx="139.781" cy="4.75" rx="3.781" ry="3.781"/>
    <ellipse id="Ellipse_1_copy_5" data-name="Ellipse 1 copy 5" class="cls-2" cx="173.781" cy="4.75" rx="3.781" ry="3.781"/>
    <ellipse id="Ellipse_1_copy_6" data-name="Ellipse 1 copy 6" class="cls-2" cx="207.781" cy="4.75" rx="3.781" ry="3.781"/>
    <ellipse id="Ellipse_1_copy_7" data-name="Ellipse 1 copy 7" class="cls-2" cx="241.781" cy="4.75" rx="3.781" ry="3.781"/>
    <ellipse id="Ellipse_1_copy_8" data-name="Ellipse 1 copy 8" class="cls-2" cx="3.781" cy="33.406" rx="3.781" ry="3.781"/>
    <ellipse id="Ellipse_1_copy_8-2" data-name="Ellipse 1 copy 8" class="cls-2" cx="37.781" cy="33.406" rx="3.781" ry="3.781"/>
    <ellipse id="Ellipse_1_copy_8-3" data-name="Ellipse 1 copy 8" class="cls-2" cx="71.781" cy="33.406" rx="3.781" ry="3.781"/>
    <ellipse id="Ellipse_1_copy_8-4" data-name="Ellipse 1 copy 8" class="cls-2" cx="105.781" cy="33.406" rx="3.781" ry="3.781"/>
    <ellipse id="Ellipse_1_copy_8-5" data-name="Ellipse 1 copy 8" class="cls-2" cx="139.781" cy="33.406" rx="3.781" ry="3.781"/>
    <ellipse id="Ellipse_1_copy_8-6" data-name="Ellipse 1 copy 8" class="cls-2" cx="173.781" cy="33.406" rx="3.781" ry="3.781"/>
    <ellipse id="Ellipse_1_copy_8-7" data-name="Ellipse 1 copy 8" class="cls-2" cx="207.781" cy="33.406" rx="3.781" ry="3.781"/>
    <ellipse id="Ellipse_1_copy_8-8" data-name="Ellipse 1 copy 8" class="cls-2" cx="241.781" cy="33.406" rx="3.781" ry="3.781"/>
    <ellipse id="Ellipse_1_copy_9" data-name="Ellipse 1 copy 9" class="cls-2" cx="3.781" cy="62.75" rx="3.781" ry="3.781"/>
    <ellipse id="Ellipse_1_copy_9-2" data-name="Ellipse 1 copy 9" class="cls-2" cx="37.781" cy="62.75" rx="3.781" ry="3.781"/>
    <ellipse id="Ellipse_1_copy_9-3" data-name="Ellipse 1 copy 9" class="cls-2" cx="71.781" cy="62.75" rx="3.781" ry="3.781"/>
    <ellipse id="Ellipse_1_copy_9-4" data-name="Ellipse 1 copy 9" class="cls-2" cx="105.781" cy="62.75" rx="3.781" ry="3.781"/>
    <ellipse id="Ellipse_1_copy_9-5" data-name="Ellipse 1 copy 9" class="cls-2" cx="139.781" cy="62.75" rx="3.781" ry="3.781"/>
    <ellipse id="Ellipse_1_copy_9-6" data-name="Ellipse 1 copy 9" class="cls-2" cx="173.781" cy="62.75" rx="3.781" ry="3.781"/>
    <ellipse id="Ellipse_1_copy_9-7" data-name="Ellipse 1 copy 9" class="cls-2" cx="207.781" cy="62.75" rx="3.781" ry="3.781"/>
    <ellipse id="Ellipse_1_copy_9-8" data-name="Ellipse 1 copy 9" class="cls-2" cx="241.781" cy="62.75" rx="3.781" ry="3.781"/>
    <ellipse id="Ellipse_1_copy_9-9" data-name="Ellipse 1 copy 9" class="cls-2" cx="3.781" cy="91.406" rx="3.781" ry="3.781"/>
    <ellipse id="Ellipse_1_copy_9-10" data-name="Ellipse 1 copy 9" class="cls-2" cx="37.781" cy="91.406" rx="3.781" ry="3.781"/>
    <ellipse id="Ellipse_1_copy_9-11" data-name="Ellipse 1 copy 9" class="cls-2" cx="71.781" cy="91.406" rx="3.781" ry="3.781"/>
    <ellipse id="Ellipse_1_copy_9-12" data-name="Ellipse 1 copy 9" class="cls-2" cx="105.781" cy="91.406" rx="3.781" ry="3.781"/>
    <ellipse id="Ellipse_1_copy_9-13" data-name="Ellipse 1 copy 9" class="cls-2" cx="139.781" cy="91.406" rx="3.781" ry="3.781"/>
    <ellipse id="Ellipse_1_copy_9-14" data-name="Ellipse 1 copy 9" class="cls-2" cx="173.781" cy="91.406" rx="3.781" ry="3.781"/>
    <ellipse id="Ellipse_1_copy_9-15" data-name="Ellipse 1 copy 9" class="cls-2" cx="207.781" cy="91.406" rx="3.781" ry="3.781"/>
    <ellipse id="Ellipse_1_copy_9-16" data-name="Ellipse 1 copy 9" class="cls-2" cx="241.781" cy="91.406" rx="3.781" ry="3.781"/>
    <ellipse id="Ellipse_1_copy_10" data-name="Ellipse 1 copy 10" class="cls-2" cx="3.781" cy="119.75" rx="3.781" ry="3.781"/>
    <ellipse id="Ellipse_1_copy_10-2" data-name="Ellipse 1 copy 10" class="cls-2" cx="37.781" cy="119.75" rx="3.781" ry="3.781"/>
    <ellipse id="Ellipse_1_copy_10-3" data-name="Ellipse 1 copy 10" class="cls-2" cx="71.781" cy="119.75" rx="3.781" ry="3.781"/>
    <ellipse id="Ellipse_1_copy_10-4" data-name="Ellipse 1 copy 10" class="cls-2" cx="105.781" cy="119.75" rx="3.781" ry="3.781"/>
    <ellipse id="Ellipse_1_copy_10-5" data-name="Ellipse 1 copy 10" class="cls-2" cx="139.781" cy="119.75" rx="3.781" ry="3.781"/>
    <ellipse id="Ellipse_1_copy_10-6" data-name="Ellipse 1 copy 10" class="cls-2" cx="173.781" cy="119.75" rx="3.781" ry="3.781"/>
    <ellipse id="Ellipse_1_copy_10-7" data-name="Ellipse 1 copy 10" class="cls-2" cx="207.781" cy="119.75" rx="3.781" ry="3.781"/>
    <ellipse id="Ellipse_1_copy_10-8" data-name="Ellipse 1 copy 10" class="cls-2" cx="241.781" cy="119.75" rx="3.781" ry="3.781"/>
    <ellipse id="Ellipse_1_copy_10-9" data-name="Ellipse 1 copy 10" class="cls-2" cx="3.781" cy="148.406" rx="3.781" ry="3.781"/>
    <ellipse id="Ellipse_1_copy_10-10" data-name="Ellipse 1 copy 10" class="cls-2" cx="37.781" cy="148.406" rx="3.781" ry="3.781"/>
    <ellipse id="Ellipse_1_copy_10-11" data-name="Ellipse 1 copy 10" class="cls-2" cx="71.781" cy="148.406" rx="3.781" ry="3.781"/>
    <ellipse id="Ellipse_1_copy_10-12" data-name="Ellipse 1 copy 10" class="cls-2" cx="105.781" cy="148.406" rx="3.781" ry="3.781"/>
    <ellipse id="Ellipse_1_copy_10-13" data-name="Ellipse 1 copy 10" class="cls-2" cx="139.781" cy="148.406" rx="3.781" ry="3.781"/>
    <ellipse id="Ellipse_1_copy_10-14" data-name="Ellipse 1 copy 10" class="cls-2" cx="173.781" cy="148.406" rx="3.781" ry="3.781"/>
    <ellipse id="Ellipse_1_copy_10-15" data-name="Ellipse 1 copy 10" class="cls-2" cx="207.781" cy="148.406" rx="3.781" ry="3.781"/>
    <ellipse id="Ellipse_1_copy_10-16" data-name="Ellipse 1 copy 10" class="cls-2" cx="241.781" cy="148.406" rx="3.781" ry="3.781"/>
    <ellipse id="Ellipse_1_copy_10-17" data-name="Ellipse 1 copy 10" class="cls-2" cx="3.781" cy="177.75" rx="3.781" ry="3.781"/>
    <ellipse id="Ellipse_1_copy_10-18" data-name="Ellipse 1 copy 10" class="cls-2" cx="37.781" cy="177.75" rx="3.781" ry="3.781"/>
    <ellipse id="Ellipse_1_copy_10-19" data-name="Ellipse 1 copy 10" class="cls-2" cx="71.781" cy="177.75" rx="3.781" ry="3.781"/>
    <ellipse id="Ellipse_1_copy_10-20" data-name="Ellipse 1 copy 10" class="cls-2" cx="105.781" cy="177.75" rx="3.781" ry="3.781"/>
    <ellipse id="Ellipse_1_copy_10-21" data-name="Ellipse 1 copy 10" class="cls-2" cx="139.781" cy="177.75" rx="3.781" ry="3.781"/>
    <ellipse id="Ellipse_1_copy_10-22" data-name="Ellipse 1 copy 10" class="cls-2" cx="173.781" cy="177.75" rx="3.781" ry="3.781"/>
    <ellipse id="Ellipse_1_copy_10-23" data-name="Ellipse 1 copy 10" class="cls-2" cx="207.781" cy="177.75" rx="3.781" ry="3.781"/>
    <ellipse id="Ellipse_1_copy_10-24" data-name="Ellipse 1 copy 10" class="cls-2" cx="241.781" cy="177.75" rx="3.781" ry="3.781"/>
    <ellipse id="Ellipse_1_copy_10-25" data-name="Ellipse 1 copy 10" class="cls-2" cx="3.781" cy="206.406" rx="3.781" ry="3.781"/>
    <ellipse id="Ellipse_1_copy_10-26" data-name="Ellipse 1 copy 10" class="cls-2" cx="37.781" cy="206.406" rx="3.781" ry="3.781"/>
    <ellipse id="Ellipse_1_copy_10-27" data-name="Ellipse 1 copy 10" class="cls-2" cx="71.781" cy="206.406" rx="3.781" ry="3.781"/>
    <ellipse id="Ellipse_1_copy_10-28" data-name="Ellipse 1 copy 10" class="cls-2" cx="105.781" cy="206.406" rx="3.781" ry="3.781"/>
    <ellipse id="Ellipse_1_copy_10-29" data-name="Ellipse 1 copy 10" class="cls-2" cx="139.781" cy="206.406" rx="3.781" ry="3.781"/>
    <ellipse id="Ellipse_1_copy_10-30" data-name="Ellipse 1 copy 10" class="cls-2" cx="173.781" cy="206.406" rx="3.781" ry="3.781"/>
    <ellipse id="Ellipse_1_copy_10-31" data-name="Ellipse 1 copy 10" class="cls-2" cx="207.781" cy="206.406" rx="3.781" ry="3.781"/>
    <ellipse id="Ellipse_1_copy_10-32" data-name="Ellipse 1 copy 10" class="cls-2" cx="241.781" cy="206.406" rx="3.781" ry="3.781"/>
  </g>
</svg>
