<svg version="1.2" xmlns="http://www.w3.org/2000/svg" viewBox="0 0 500 478" width="500" height="478">
	<title>Repeat icon-svg</title>
	<style>
		.s0 { fill: #1b8cdc } 
	</style>
	<path id="Arrow 78 - Shapes4FREE 1" class="s0" d="m238.5 1c95.3 0 177.6 56.2 215.2 137.3l45.4-18.6-34.4 140.8-122.4-76.3 48.9-20.3c-22.2-55.4-82.5-102.9-152.7-106.9-101.8-6-190 80.1-191.2 180.5-1.1 101.7 74.2 202.5 191.2 212.4 151.5 12.7 222.4-128.4 222.4-128.4-33.6 90.1-120.5 154.4-222.4 154.4-131.1 0-237.5-106.3-237.5-237.4 0-131.1 106.4-237.5 237.5-237.5z"/>
	<path id="Right" class="s0" d="m280.8 183.6c-1.4-0.7-3.1-0.3-4.1 1l-68.2 100-38-45.9c-1.1-1.4-2.9-1.6-4.2-0.6-1.2 0.9-1.6 2.7-0.8 4l40.7 68.2c0.6 1 1.6 1.5 2.7 1.5 1 0 2-0.5 2.5-1.5l70.5-122.6c0.8-1.4 0.4-3.1-1.1-4.1z"/>
</svg>